<svg xmlns="http://www.w3.org/2000/svg" version="1.1" xmlns:xlink="http://www.w3.org/1999/xlink" xmlns:svgjs="http://svgjs.dev/svgjs" width="128" height="128" viewBox="0 0 128 128"><g transform="matrix(0.8046875,0,0,0.8046875,12.760752631578946,28.86216781331813)"><svg viewBox="0 0 95 65" data-background-color="#ffffff" preserveAspectRatio="xMidYMid meet" height="87" width="128" xmlns="http://www.w3.org/2000/svg" xmlns:xlink="http://www.w3.org/1999/xlink"><g id="tight-bounds" transform="matrix(1,0,0,1,-0.24049999999999727,0.12434592045454451)"><svg viewBox="0 0 95.481 64.75130815909091" height="64.75130815909091" width="95.481"><g><svg viewBox="0 0 95.481 64.75130815909091" height="64.75130815909091" width="95.481"><g><svg viewBox="0 0 95.481 64.75130815909091" height="64.75130815909091" width="95.481"><g id="textblocktransform"><svg viewBox="0 0 95.481 64.75130815909091" height="64.75130815909091" width="95.481" id="textblock"><g><svg viewBox="0 0 95.481 64.75130815909091" height="64.75130815909091" width="95.481"><g><svg viewBox="0 0 95.481 64.75130815909091" height="64.75130815909091" width="95.481"><g><svg xmlns="http://www.w3.org/2000/svg" xmlns:xlink="http://www.w3.org/1999/xlink" version="1.1" x="0" y="0" viewBox="28 33.161 44 29.839" enable-background="new 0 0 100 100" xml:space="preserve" height="64.75130815909091" width="95.481" class="icon-icon-0" data-fill-palette-color="accent" id="icon-0"><g fill="#000000" data-fill-palette-color="accent"><path d="M53.228 40.092c-0.774 0.912-1.968 1.504-3.255 1.504-0.009 0-0.018-0.003-0.027-0.003 1.276-0.008 2.407-0.596 3.176-1.501 0.624-0.736 1.016-1.675 1.016-2.713 0-2.326-1.892-4.218-4.218-4.218s-4.218 1.892-4.218 4.218c0 1.048 0.398 1.996 1.033 2.735 0.462 0.537 1.061 0.94 1.733 1.195-0.713-0.255-1.363-0.658-1.825-1.195C36.185 41.698 28 50.748 28 61.642V63h44v-1.358C72 50.691 63.766 41.606 53.228 40.092zM47.702 37.378c0-1.223 0.995-2.218 2.218-2.218s2.218 0.995 2.218 2.218-0.995 2.218-2.218 2.218S47.702 38.601 47.702 37.378zM30.261 61c0.523-11 9.182-18.776 19.751-18.776S69.24 50 69.763 61H30.261z" fill="#000000" data-fill-palette-color="accent"></path><path d="M34.109 56.339l1.9 0.661h0.001c0.162-1 0.356-0.973 0.563-1.43 0.001-0.001 0.001-0.015 0.002-0.016 2.17-4.78 6.704-8.052 11.922-8.586C48.995 46.917 50 46.875 50 46.875v-2C43 44.875 36.406 49.497 34.109 56.339z" fill="#000000" data-fill-palette-color="accent"></path></g></svg></g></svg></g></svg></g></svg></g></svg></g><g></g></svg></g><defs></defs></svg><rect width="95.481" height="64.75130815909091" fill="none" stroke="none" visibility="hidden"></rect></g></svg></g></svg>